<?xml version="1.0" encoding="utf-8"?>
<!-- Generator: Adobe Illustrator 16.0.3, SVG Export Plug-In . SVG Version: 6.00 Build 0)  -->
<!DOCTYPE svg PUBLIC "-//W3C//DTD SVG 1.1//EN" "http://www.w3.org/Graphics/SVG/1.1/DTD/svg11.dtd">
<svg version="1.1" id="Layer_1" xmlns="http://www.w3.org/2000/svg" xmlns:xlink="http://www.w3.org/1999/xlink" x="0px" y="0px"
	 width="612px" height="96.736px" viewBox="0 347.661 612 96.736" enable-background="new 0 347.661 612 96.736"
	 xml:space="preserve">
<rect x="40.341" y="363.438" fill="none" width="575.66" height="80.237"/>
<text transform="matrix(1 0 0 1 40.3779 442.998)" fill="#FFFFFF" font-family="'Arial-Black'" font-size="111.1313">BroShirts</text>
<g transform="translate(0.000000,1380.000000) scale(0.100000,-0.100000)">
	<g id="XMLID_1_">
		<g>
			<path fill="#FFFFFF" d="M32.119,9535.273c-1.001,13.34-0.444,45.459,0.664,51.787c1.221,6.445,3.667,10.781,10.557,18.115
				c7.778,8.34,9.224,10.674,12.671,20.566c4.443,12.549,5.669,19.551,6.113,35.225c0.332,14.443-0.112,21.113-3.003,42.676
				c-0.889,6.67-1.777,15.557-2.109,19.668c-0.781,14.229-2.446,21.563-6.226,27.891l-1.445,2.559l-0.552-3.555
				c-0.225-2.002-2.671-20.889-5.449-42.012c-6.777-52.783-8.442-64.229-12.891-88.018c-4.668-25.225-5.776-33.34-6.777-48.779
				c-0.669-13.564-1.333-18.34-4.224-34.678c-2.446-13.555-4.336-18.223-8.003-19.893c-4.556-2.217-10,0.557-11.333,5.449
				c-0.112,0.889-0.225,16.553,0,34.893c0.22,28.896,0.444,33.789,1.553,38.115c2.446,9.561,6.001,15.342,11.006,17.783l3.11,1.445
				l0.444,5.557c0.22,2.891,1.333,9.443,2.554,14.443c3.003,12.783,3.335,16.113,4.893,41.455
				c2.778,42.227,5.889,62.568,13.11,83.125c9.229,26.67,22.896,42.9,52.9,63.018c17.671,11.885,42.896,25.664,57.676,31.557
				c12.891,5.113,30.562,14.225,39.453,20.338c4.224,2.998,23.003,22.67,28.34,29.893c2.666,3.447,6.113,8.672,7.891,11.563
				c7.666,12.777,19.224,38.002,23.335,51.23c2.778,9.219,11.558,28.002,21.67,46.338c13.003,23.896,13.56,26.338,14.116,60.902
				c0.22,18.668,0.664,21.002,4.443,28.447c3.003,5.781,3.892,12.334,3.335,24.449c-0.444,10.889-1.001,15.336-5.669,40.674
				c-1.89,10.557-3.442,21.563-3.887,27.676c-0.444,5.664-0.889,11.664-1.113,13.441c-1.333,9.893-6.777,16.451-14.668,17.896
				c-1.558,0.332-11.113,0.551-21.338,0.551l-18.56,0.113l-3.999,2.002c-2.666,1.221-4.556,2.773-5.557,4.33
				c-1.89,3.004-2.559,8.004-1.445,10.113c1.445,2.67,6.445,5.449,15.781,9.223c11.67,4.557,15.225,6.445,18.667,10.225
				c2.891,3.111,3.56,5.113,1.782,5.113c-4.448,0-13.003,7.891-14.78,13.672c-1.226,3.555-1.226,3.779,0.107,6.445
				c1.777,3.555,5.225,5.889,9.224,5.889c3.892,0,6.226-1.113,15.337-6.891c9.111-5.781,11.445-6.781,15.669-6.67
				c4.448,0,8.115,2.115,14.893,8.336c9.336,8.447,14.336,10.111,35.229,11.445c19.448,1.338,23.335,2.559,40.229,12.227
				c11.67,6.67,15.669,8.555,21.226,9.893c7.891,2.109,15.894,0.332,21.67-5.006c3.335-2.998,4.893-6.107,4.893-9.668
				c0-6.221-4.336-11.445-16.338-19.447c-11.338-7.559-18.335-13.447-23.34-19.668c-2.222-2.779-8.223-9.336-13.223-14.561
				c-9.893-10.113-13.223-15-17.671-25.338c-9.443-22.67-9.556-44.34-0.112-77.236c1.445-5.332,6.782-20.668,11.558-34.004
				l8.892-24.34l0.444-12.002c0.557-11.221,0.781-12.779,4.556-28.229c5.781-24.004,6.226-27.445,6.226-44.672
				c-0.112-16.895-0.889-24.674-5.889-56.787c-6.89-45.234-7.783-63.346-3.447-76.236c0.776-2.445,3.999-9.672,7.002-16.006
				c7.891-16.557,8.779-19.555,8.779-29.779c0-12.451-2.002-17.451-13.447-32.783c-6.221-8.34-13.892-20.117-17.114-26.006
				c-4.336-8.447-8.335-22.559-9.448-34.229c-0.552-6.006,0.557-17.676,3.335-34.678l2.334-14.004l-0.22-37.227
				c-0.225-41.67-0.444-39.893,5-58.672c3.667-12.559,5.332-21.895,7.446-40.898c0.889-7.227,1.997-16.563,2.554-20.674
				c0.889-5.664,1.001-9.775,0.557-18.223c-0.889-19.111-0.444-21.67,7.446-40.781c5.776-14.346,7.002-18.789,9.336-34.453
				c1.001-6.338,2.334-13.564,2.891-16.006c3.11-11.777,11.001-21.67,24.556-30.781c8.335-5.664,11.113-8.34,12.671-12.451
				c2.778-7.217-1.445-12.773-9.668-12.773c-4.224,0-18.115,2.441-21.226,3.779c-10.005,4.219-19.448,16.553-32.783,43.223
				c-5.557,10.898-7.114,16.67-8.223,28.672c-0.337,4.668-1.113,12.227-1.445,16.895c-0.889,10-1.782,13.447-6.338,25.898
				c-5.332,14.551-5.557,16.113-5.557,31.221c0,16.23-0.664,19.229-5.444,26.563c-1.89,2.891-4.556,7.998-5.776,11.221
				c-3.335,8.564-7.446,25.449-8.779,35.898c-0.669,5-1.226,9.229-1.445,9.336c-0.781,0.781-1.226-1.113-1.89-8.779
				c-0.889-11.895-3.447-28.008-8.003-51.23c-8.667-45.117-8.892-46.23-8.555-74.238c0.107-11.113-0.112-24.229-0.337-29.111
				l-0.664-8.672l4.111-9.893c7.334-17.998,8.667-19.775,18.335-24.893c4.224-2.227,6.445-3.779,7.446-5.332
				c3.999-7.109-1.221-12.891-12.891-14.336c-10.889-1.445-23.115,0.557-28.34,4.668c-4.888,3.555-5.664,7.891-2.886,13.672
				c2.998,5.664,2.329,8.33-5.112,20.664c-2.778,4.561-5.337,9.336-5.781,10.664c-1.221,4.229-1.558,24.229-0.664,34.57
				c0.996,10.439,1.777,15.781,6.997,46.23c5.669,33.672,5.894,38.555,2.891,65.566c-2.446,21.445-1.553,43.896,2.778,66.68
				c3.999,21.777,4.224,24.775,3.11,48.223c-0.444,11.895-0.996,21.787-1.108,21.895c-0.225,0.117-5.889-0.664-12.559-1.777
				c-25.337-4.111-51.567-5.332-65.791-3.105c-15.112,2.549-18.115,0.107-21.558-16.895c-2.222-11.006-2.114-10.781-8.003-19.785
				c-6.333-9.551-12.222-21.113-20.669-40.889c-7.227-16.67-10.005-22.676-14.448-30.117c-8.335-14.561-9.78-19.453-10.225-36.787
				c-0.444-15.117,0.557-24.111,4.668-40.01c5.112-20,14.004-40.781,28.452-67.012c2.441-4.336,6.445-12.666,8.667-18.555
				c8.335-20.225,13.779-28.232,23.228-33.789c1.108-0.664,2.334-2.109,2.886-3.105c1.113-2.891,6.001-7.002,14.229-12.002
				c13.11-8.223,16.777-12.891,13.999-18.447c-3.33-6.895-9.556-7.334-25.225-2.119c-17.446,5.674-29.116,12.227-38.008,21.123
				c-6.558,6.66-9.336,12.334-11.777,24.561c-2.671,13.105-8.228,26.328-25.562,61.67c-6.558,13.34-13.335,25.898-18.56,34.346
				c-10.889,17.441-15.225,25.781-18.228,34.785c-5.112,15.557-4.888,24.336,1.445,43.34c4.448,13.662,5.669,17.891,6.338,23.779
				c0.552,5.664-0.669,5.889-3.56,0.664c-1.108-2.002-5.332-8.33-9.443-14.219c-17.339-24.346-18.784-28.564-18.003-55.684
				c0.444-12.998,0.22-22.109-0.669-36.895c-1.558-25.107-1.221-49.453,0.889-61.338c2.002-10.781,4.556-18.564,8.779-27.012
				c5.112-9.883,8.56-13.223,19.116-18.115c13.003-6.104,16.113-7.773,16.333-9.111c0.337-1.553-5.107-6.885-8.999-8.887
				c-4.888-2.559-11.113-3.672-16.445-3.34c-17.671,1.563-35.122,14.893-41.787,31.787c-1.67,4.111-1.67,4.561-1.445,23.779
				c0.225,22.676-0.444,33.232-4.111,70.908C34.116,9510.713,32.563,9528.613,32.119,9535.273z"/>
		</g>
	</g>
</g>
</svg>
